<svg width="190" height="165" fill="none" xmlns="http://www.w3.org/2000/svg"><circle cx="60" cy="105" r="60" fill="#F90"/><path fill-rule="evenodd" clip-rule="evenodd" d="M101.131 15.49a.973.973 0 0 1 1.332-.359l57.049 33.041c.466.27.626.87.357 1.338a.973.973 0 0 1-1.332.359l-57.049-33.041a.982.982 0 0 1-.357-1.338z" fill="#000"/><path fill-rule="evenodd" clip-rule="evenodd" d="M123.502 1.875a13.998 13.998 0 0 1 13.996 0l.002.001L183 27.881a14.006 14.006 0 0 1 7 12.113v52.012a14.004 14.004 0 0 1-7 12.113l-.004.002-45.496 26.003-.001.001a14.004 14.004 0 0 1-13.998 0l-.001-.001-45.496-26.003-.004-.002a14 14 0 0 1-7-12.113V39.994a14.005 14.005 0 0 1 7-12.113l.004-.002L123.5 1.876l.002-.001zM130.5 2c-2.106 0-4.176.555-6 1.608l-.004.003L79 29.614h-.002A12.002 12.002 0 0 0 73 39.996v52.01a12.004 12.004 0 0 0 5.998 10.38l.002.001 45.5 26.006a12.003 12.003 0 0 0 12 0l.004-.003L182 102.386l.002-.001A12.004 12.004 0 0 0 188 92.005v-52.01a12.004 12.004 0 0 0-5.998-10.38l-.002-.001L136.504 3.61l-.004-.003a11.999 11.999 0 0 0-6-1.608z" fill="#000"/><path fill-rule="evenodd" clip-rule="evenodd" d="M73.133 33.488a.993.993 0 0 1 1.349-.357L130 64.896l55.518-31.765a.993.993 0 0 1 1.349.357.97.97 0 0 1-.36 1.334l-56.013 32.047a.996.996 0 0 1-.988 0L73.493 34.822a.97.97 0 0 1-.36-1.334z" fill="#000"/><path fill-rule="evenodd" clip-rule="evenodd" d="M130 65a.99.99 0 0 1 1 .978v64.045a.99.99 0 0 1-1 .977.99.99 0 0 1-1-.977V65.978a.99.99 0 0 1 1-.978z" fill="#000"/></svg>